<?xml version="1.0" ?><svg id="Layer_1" style="enable-background:new 0 0 256 256;" version="1.1" viewBox="0 0 256 256" xml:space="preserve" xmlns="http://www.w3.org/2000/svg" xmlns:xlink="http://www.w3.org/1999/xlink"><g><path d="M129.6,121.6c-13.6-4.8-22-8.4-23.3-18.1c-1-7.1,4.4-14.7,11.8-16.9c7.8-2.3,18.3-1.4,28.2,2.6c2.5,1,5.4-0.2,6.5-2.8   c1-2.6-0.2-5.4-2.8-6.5c-5.8-2.3-11.7-3.7-17.4-4.2v-10c0-2.7-2.2-5-5-5c-2.7,0-5,2.2-5,5v10c-2.5,0.3-5,0.7-7.3,1.4   c-12.2,3.6-20.5,15.8-18.9,27.7c2.2,16.5,16.9,21.6,29.9,26.2c7.1,2.5,13.9,4.9,17.9,8.7c3.6,3.4,5.6,7.8,5.5,12.4   c-0.1,4.5-2.1,8.8-5.8,12.1c-4.1,3.7-9.5,5.7-16.6,6.2c-5.3,0.2-11.5-0.3-18.9-1.7c-1.9-0.4-3.7-0.7-5.4-1.2   c-2.7-0.8-5.4,0.7-6.2,3.3c-0.8,2.6,0.7,5.4,3.3,6.2c2.2,0.7,4.3,1.1,6.4,1.5c6,1.1,11.2,1.7,16,1.8v9.8c0,2.7,2.2,5,5,5   c2.7,0,5-2.2,5-5v-10.4c7.3-1.2,13.3-3.8,18.1-8.1c5.8-5.2,9-12.1,9.1-19.4c0.1-7.4-3-14.4-8.6-19.7   C145.6,127.2,137.5,124.4,129.6,121.6z"/><path d="M130,32.6c-25.6-0.6-49.6,8.9-67.9,26.5c-18.3,17.6-29,41.9-29.4,66.8c-0.9,52.7,40.9,96.4,93.2,97.5c0.7,0,1.3,0,2,0   c25.2,0,49-9.8,67.1-27.8c18.3-18.2,28.6-42.7,28.3-67.1C223.8,76.7,182,33.7,130,32.6z M188,188.5c-16.6,16.5-38.6,25.4-61.9,24.9   c-46.8-1-84.2-40.2-83.4-87.4c0.4-22.2,10-44,26.3-59.8C85,50.9,105.9,42.5,128,42.5c0.6,0,1.2,0,1.9,0c46.5,1,83.9,39.5,83.5,86   C213.7,150.3,204.4,172.2,188,188.5z"/><path d="M214.1,39C189.5,15.2,156.8,2.9,122,4.5C57.3,7.3,5.5,60.8,4.2,126.3c-0.2,34.1,12.8,66,36.5,89.6   c23.2,23.1,54.1,35.8,87.1,35.8c0.4,0,0.8,0,1.3,0c68.2-0.7,122.1-54.6,122.7-122.7C252.1,94.7,238.7,62.7,214.1,39z M129,241.7   c-30.9,0.4-59.7-11.4-81.2-32.9c-21.8-21.8-33.8-51.1-33.6-82.4c1.2-60.1,48.8-109.3,108.3-112c32-1.4,62.1,9.8,84.8,31.7   c22.6,21.8,34.9,51.2,34.6,82.7C241.3,191.5,191.7,241.1,129,241.7z"/></g></svg>