<?xml version="1.0" ?><svg id="Layer_1" style="enable-background:new 0 0 64 64;" version="1.1" viewBox="0 0 64 64" xml:space="preserve" xmlns="http://www.w3.org/2000/svg" xmlns:xlink="http://www.w3.org/1999/xlink"><style type="text/css">
	.st0{fill:#62BEE7;}
	.st1{fill:#474E5E;}
	.st2{fill:#F3EEE4;}
	.st3{fill:#FFFFFF;}
	.st4{fill:#E8DCCA;}
	.st5{opacity:0.1;fill:#231F20;}
	.st6{fill:#506268;}
	.st7{fill:#EB5151;}
	.st8{fill:#C64444;}
	.st9{fill:#9CCB5B;}
	.st10{fill:#404A4C;}
	.st11{fill:#676767;}
	.st12{fill:#E0E1E5;}
	.st13{fill:#9D9EA0;}
	.st14{fill:#B3B4B7;}
	.st15{opacity:0.1;}
	.st16{fill:#231F20;}
	.st17{fill:#FACC20;}
	.st18{fill:#FDEF34;}
	.st19{fill:#F7A90B;}
	.st20{fill:#20B8EA;}
	.st21{fill:#00A8EA;}
	.st22{fill:#33D3F4;}
	.st23{opacity:0.25;fill:#FFFFFF;}
	.st24{fill:#CACBCE;}
	.st25{fill:#2E3545;}
	.st26{fill:#8DAF4A;}
	.st27{fill:#F9C2AF;}
	.st28{fill:#AFDDF4;}
	.st29{fill:#677177;}
	.st30{fill:#FFEDB3;}
	.st31{fill:#695652;}
	.st32{fill:#30A7BF;}
	.st33{fill:#4D5556;}
	.st34{opacity:0.35;}
	.st35{fill:#FFCB04;}
	.st36{fill:#99E9FA;}
	.st37{opacity:0.2;}
	.st38{opacity:3.000000e-02;}
	.st39{fill:#9ECA5B;}
	.st40{fill:#98BA56;}
	.st41{fill:#40EEFF;}
	.st42{fill:#FF6A52;}
	.st43{opacity:0.1;fill:#FFFFFF;}
	.st44{opacity:0.4;}
	.st45{fill:#57606D;}
	.st46{fill:#BACA5B;}
	.st47{opacity:0.25;}
	.st48{opacity:5.000000e-02;fill:#231F20;}
	.st49{opacity:0.2;fill:#FFFFFF;}
	.st50{opacity:0.3;}
	.st51{fill:#FFD82F;}
	.st52{fill:#F4C121;}
	.st53{fill:#EF9D0A;}
	.st54{fill:#F9E532;}
	.st55{fill:#F4C01E;}
	.st56{fill:#FFE14D;}
	.st57{fill:#B7C156;}
	.st58{fill:#DBA92C;}
	.st59{fill:#363D4D;}
	.st60{fill:#3F4656;}
	.st61{fill:#463E33;}
	.st62{fill:none;}
	.st63{opacity:4.000000e-02;}
	.st64{fill:#4DB6AC;}
	.st65{fill:#CADE49;}
	.st66{fill:#9FD343;}
	.st67{fill:#AAD643;}
	.st68{fill:#82C736;}
	.st69{opacity:0.3;fill:#FFFFFF;}
	.st70{fill:#FFD640;}
	.st71{opacity:0.5;}
	.st72{opacity:0.6;}
</style><g><circle class="st21" cx="32" cy="32" r="32"/><g><g><g><rect class="st65" height="24.8" width="41.8" x="14.2" y="22.7"/></g></g><g><polygon class="st65" points="11.1,19.6 49.8,19.6 49.8,16.5 8,16.5 8,41.3 11.1,41.3    "/></g><g><g><polygon class="st66" points="14.2,22.7 52.9,22.7 52.9,19.6 11.1,19.6 11.1,44.4 14.2,44.4     "/></g></g><g><g><rect class="st67" height="17" width="34.1" x="18.1" y="26.6"/></g></g><g><ellipse class="st68" cx="35.1" cy="35.1" rx="4.8" ry="6.6"/></g><g><g><path class="st68" d="M23.5,26.6c0,3-2.4,5.4-5.4,5.4h0v-5.4H23.5z"/></g></g><g><g><path class="st68" d="M52.1,26.6V32c-3,0-5.4-2.4-5.4-5.4H52.1z"/></g></g><g><g><path class="st68" d="M23.5,43.6h-5.4v-5.4h0C21.1,38.2,23.5,40.6,23.5,43.6z"/></g></g><g><g><path class="st68" d="M52.1,38.2v5.4h-5.4C46.7,40.6,49.1,38.2,52.1,38.2z"/></g></g><g><g><g><path class="st3" d="M37.6,35.8c-0.1-0.3-0.4-1.1-2.2-1.4v-2.1c0.4,0.1,0.7,0.4,0.8,0.9c0.1,0.4,0.3,0.5,0.7,0.5       c0.2,0,1.3-0.3,0.2-1.7c-0.2-0.2-0.5-0.6-1.6-0.7v-0.9h-0.7v0.9c-2,0.2-2.2,1.5-2.2,2.1c0,1.8,1.7,2.1,2.2,2.2v2.4       c-0.8-0.2-1-1.1-1.1-1.3c-0.1-0.4-0.5-0.4-0.6-0.4c-0.5,0-0.7,0.5-0.7,0.6c0,0.2,0.1,1.3,1.3,1.9c0.3,0.2,0.6,0.2,1.1,0.3       l0,0.8h0.7V39c0.5,0,0.9-0.2,1.3-0.4C37.7,38,38,36.9,37.6,35.8z M34.8,34.2c-0.5-0.2-0.9-0.3-0.9-1c0-0.3,0.1-0.8,0.9-1V34.2z        M35.5,38v-2.3c1.1,0.3,1.1,0.8,1.1,1.1C36.5,37.1,36.5,37.7,35.5,38z"/></g></g></g><g><circle class="st68" cx="27.1" cy="35.1" r="1.3"/><circle class="st68" cx="43.1" cy="35.1" r="1.3"/></g></g></g></svg>