<?xml version="1.0" ?><!DOCTYPE svg  PUBLIC '-//W3C//DTD SVG 1.1//EN'  'http://www.w3.org/Graphics/SVG/1.1/DTD/svg11.dtd'><svg enable-background="new 0 0 32 32" height="32px" version="1.1" viewBox="0 0 32 32" width="32px" xml:space="preserve" xmlns="http://www.w3.org/2000/svg" xmlns:xlink="http://www.w3.org/1999/xlink"><g id="Ethereum_ETH"><g><g><path d="M16,30c-3.74,0-7.255-1.456-9.899-4.101C3.456,23.255,2,19.739,2,16s1.456-7.255,4.101-9.899     c0.195-0.195,0.512-0.195,0.707,0s0.195,0.512,0,0.707C4.352,9.264,3,12.527,3,16s1.352,6.736,3.808,9.192     C9.263,27.647,12.527,29,16,29s6.737-1.353,9.192-3.808C27.648,22.736,29,19.473,29,16s-1.352-6.736-3.808-9.192     c-4.401-4.402-11.33-5.066-16.473-1.58C8.491,5.381,8.18,5.322,8.024,5.094C7.87,4.865,7.929,4.555,8.158,4.399     C13.7,0.646,21.16,1.361,25.899,6.101C28.544,8.745,30,12.261,30,16s-1.456,7.255-4.101,9.899C23.255,28.544,19.74,30,16,30z" fill="#263238"/></g><g><path d="M16,27C9.935,27,5,22.065,5,16S9.935,5,16,5s11,4.935,11,11S22.065,27,16,27z M16,6     C10.486,6,6,10.486,6,16s4.486,10,10,10s10-4.486,10-10S21.514,6,16,6z" fill="#263238"/></g></g><g><g><path d="M15.999,18.949c-0.091,0-0.182-0.024-0.262-0.074l-4.626-2.852c-0.232-0.144-0.307-0.446-0.168-0.681     l4.626-7.809c0.18-0.305,0.681-0.305,0.86,0l4.626,7.809c0.139,0.234,0.064,0.537-0.168,0.681l-4.626,2.852     C16.181,18.925,16.089,18.949,15.999,18.949z M12.053,15.43l3.945,2.433l3.946-2.433l-3.946-6.66L12.053,15.43z" fill="#263238"/></g><g><path d="M15.999,24.512L15.999,24.512c-0.153,0-0.297-0.069-0.392-0.189l-4.837-6.091     c-0.151-0.189-0.144-0.461,0.018-0.643c0.162-0.183,0.432-0.222,0.637-0.093L16,20.331l4.581-2.815     c0.206-0.127,0.475-0.088,0.636,0.095c0.161,0.182,0.168,0.453,0.016,0.643l-4.843,6.07     C16.295,24.442,16.151,24.512,15.999,24.512z M13.34,19.859l2.66,3.35l2.668-3.344l-2.408,1.479     c-0.161,0.1-0.364,0.098-0.525-0.001L13.34,19.859z" fill="#263238"/></g></g></g></svg>