<?xml version="1.0" ?><!DOCTYPE svg  PUBLIC '-//W3C//DTD SVG 1.1//EN'  'http://www.w3.org/Graphics/SVG/1.1/DTD/svg11.dtd'><svg enable-background="new 0 0 32 32" height="32px" version="1.1" viewBox="0 0 32 32" width="32px" xml:space="preserve" xmlns="http://www.w3.org/2000/svg" xmlns:xlink="http://www.w3.org/1999/xlink"><g id="Litecoin_LTC"><g><g><g><g><path d="M16,30c-3.739,0-7.255-1.456-9.899-4.101S2,19.739,2,16s1.456-7.255,4.101-9.899       c0.195-0.195,0.512-0.195,0.707,0s0.195,0.512,0,0.707C4.353,9.264,3,12.527,3,16s1.353,6.736,3.808,9.192       C9.264,27.647,12.527,29,16,29s6.736-1.353,9.192-3.808C27.647,22.736,29,19.473,29,16s-1.353-6.736-3.808-9.192       c-4.401-4.402-11.33-5.066-16.474-1.58C8.491,5.381,8.18,5.322,8.024,5.094C7.87,4.865,7.93,4.555,8.158,4.399       c5.54-3.755,13.001-3.038,17.741,1.701C28.544,8.745,30,12.261,30,16s-1.456,7.255-4.101,9.899S19.739,30,16,30z" fill="#263238"/></g><g><path d="M16,27C9.935,27,5,22.065,5,16S9.935,5,16,5s11,4.935,11,11S22.065,27,16,27z M16,6       C10.486,6,6,10.486,6,16s4.486,10,10,10s10-4.486,10-10S21.514,6,16,6z" fill="#263238"/></g></g></g></g><g><g><path d="M12.609,15.719c-0.043,0-0.087-0.006-0.13-0.018c-0.267-0.071-0.425-0.346-0.353-0.612l1.813-6.719     C13.998,8.151,14.196,8,14.422,8h3.869c0.156,0,0.304,0.073,0.397,0.197c0.095,0.124,0.126,0.285,0.085,0.436l-1.296,4.692     l1.169-0.553c0.25-0.115,0.549-0.012,0.666,0.238c0.118,0.25,0.011,0.548-0.238,0.666l-2.155,1.018     c-0.177,0.084-0.387,0.057-0.536-0.069s-0.212-0.327-0.16-0.516L17.634,9h-2.829l-1.713,6.349     C13.032,15.572,12.83,15.719,12.609,15.719z" fill="#263238"/></g><g><path d="M20.943,22h-10.16c-0.156,0-0.303-0.073-0.397-0.197s-0.126-0.285-0.085-0.436l0.96-3.496l-0.725,0.323     c-0.253,0.115-0.548,0-0.66-0.252c-0.113-0.252,0-0.548,0.252-0.66l1.691-0.756c0.176-0.079,0.384-0.05,0.529,0.076     c0.147,0.126,0.208,0.326,0.157,0.513L11.439,21h9.132l0.299-1h-5.603c-0.155,0-0.301-0.072-0.396-0.194     c-0.095-0.123-0.127-0.282-0.088-0.433l0.904-3.453c0.069-0.268,0.339-0.431,0.61-0.356c0.267,0.069,0.427,0.343,0.356,0.61     L15.915,19h5.626c0.158,0,0.307,0.074,0.401,0.201c0.094,0.127,0.123,0.291,0.078,0.442l-0.598,2     C21.359,21.854,21.164,22,20.943,22z" fill="#263238"/></g></g></g></svg>