<?xml version="1.0" ?><!DOCTYPE svg  PUBLIC '-//W3C//DTD SVG 1.1//EN'  'http://www.w3.org/Graphics/SVG/1.1/DTD/svg11.dtd'><svg enable-background="new 0 0 32 32" height="32px" version="1.1" viewBox="0 0 32 32" width="32px" xml:space="preserve" xmlns="http://www.w3.org/2000/svg" xmlns:xlink="http://www.w3.org/1999/xlink"><g id="Ripple_XRP"><g><g><g><path d="M16,30c-3.739,0-7.255-1.456-9.899-4.101S2,19.739,2,16s1.456-7.255,4.101-9.899      c0.195-0.195,0.512-0.195,0.707,0s0.195,0.512,0,0.707C4.353,9.264,3,12.527,3,16s1.353,6.736,3.808,9.192      C9.264,27.647,12.527,29,16,29s6.736-1.353,9.192-3.808C27.647,22.736,29,19.473,29,16s-1.353-6.736-3.808-9.192      c-4.402-4.402-11.33-5.066-16.474-1.58C8.491,5.381,8.18,5.322,8.024,5.094C7.87,4.865,7.93,4.555,8.158,4.399      c5.54-3.755,13.002-3.038,17.741,1.701C28.544,8.745,30,12.261,30,16s-1.456,7.255-4.101,9.899S19.739,30,16,30z" fill="#263238"/></g><g><path d="M16,27C9.935,27,5,22.065,5,16S9.935,5,16,5s11,4.935,11,11S22.065,27,16,27z M16,6      C10.486,6,6,10.486,6,16s4.486,10,10,10s10-4.486,10-10S21.514,6,16,6z" fill="#263238"/></g></g></g><g><path d="M18.559,24.013c-0.632,0-1.263-0.176-1.824-0.507c-1.121-0.653-1.818-1.864-1.818-3.16    c0-0.636,0.183-1.303,0.529-1.93c0.174-0.35,0.05-0.813-0.286-1.014c-0.452-0.257-0.885,0.094-0.994,0.285    c-0.354,0.643-0.844,1.152-1.412,1.469c-1.102,0.646-2.513,0.653-3.636-0.007c-1.12-0.658-1.816-1.871-1.816-3.165    c0-1.295,0.696-2.508,1.817-3.166s2.523-0.658,3.646,0c0.672,0.446,1.135,1.021,1.426,1.414c0.246,0.403,0.706,0.528,1.026,0.335    c0.575-0.291,0.385-0.82,0.277-1.035c-0.386-0.691-0.578-1.322-0.578-1.909c0-1.291,0.697-2.504,1.818-3.163    c0.991-0.615,2.677-0.603,3.66,0.012c1.108,0.648,1.805,1.86,1.805,3.155c0,1.291-0.696,2.502-1.816,3.161    c-0.558,0.311-1.264,0.478-2,0.478c-0.423,0-0.719,0.296-0.719,0.719c0,0.713,0.689,0.721,0.719,0.721    c0.77,0,1.42,0.153,1.989,0.47c1.131,0.664,1.827,1.877,1.827,3.171c0,1.293-0.696,2.504-1.817,3.161    C19.821,23.837,19.19,24.013,18.559,24.013z M14.782,16.291c0.298,0,0.595,0.084,0.883,0.249c0.795,0.476,1.084,1.502,0.665,2.342    c-0.274,0.497-0.414,0.997-0.414,1.464c0,0.941,0.508,1.821,1.324,2.298c0.82,0.482,1.818,0.481,2.635,0.001    c0.817-0.479,1.324-1.359,1.324-2.299c0-0.941-0.507-1.823-1.323-2.302c-0.407-0.227-0.898-0.339-1.493-0.339    c-0.833,0-1.719-0.604-1.719-1.721c0-0.979,0.739-1.719,1.719-1.719c0.568,0,1.103-0.123,1.503-0.346    c0.807-0.474,1.313-1.354,1.313-2.293c0-0.941-0.507-1.822-1.322-2.3c-0.355-0.222-0.819-0.34-1.32-0.34l0,0    c-0.498,0-0.969,0.12-1.305,0.328c-0.828,0.487-1.336,1.369-1.336,2.308c0,0.412,0.151,0.884,0.462,1.442    c0.397,0.795,0.347,1.862-0.68,2.377c-0.221,0.135-0.515,0.217-0.816,0.217c-0.617,0-1.2-0.334-1.521-0.872    c-0.366-0.489-0.732-0.858-1.126-1.121c-0.768-0.447-1.796-0.463-2.61,0.016c-0.816,0.479-1.323,1.361-1.323,2.303    c0,0.94,0.507,1.823,1.323,2.304c0.816,0.479,1.817,0.479,2.632,0c0.415-0.23,0.77-0.605,1.037-1.09    C13.533,16.776,14.064,16.291,14.782,16.291z" fill="#263238"/></g></g></svg>